<?xml version="1.0" encoding="utf-8"?>
<svg version="1.1" xmlns:xlink="http://www.w3.org/1999/xlink" width="9px" height="10px" xmlns="http://www.w3.org/2000/svg">
  <g transform="matrix(1 0 0 1 -1528 -1888 )">
    <path d="M 8.78787878787879 7.47474747474747  C 8.92929292929293 7.63187429854096  9 7.82267115600449  9 8.04713804713805  C 9 8.27160493827161  8.92929292929293 8.46240179573513  8.78787878787879 8.61952861952862  L 7.75757575757576 9.76430976430976  C 7.61616161616162 9.92143658810325  7.44444444444444 10  7.24242424242424 10  C 7.04040404040404 10  6.86868686868687 9.92143658810325  6.72727272727273 9.76430976430976  L 4.5 7.28956228956229  L 2.27272727272727 9.76430976430976  C 2.13131313131313 9.92143658810325  1.95959595959596 10  1.75757575757576 10  C 1.55555555555556 10  1.38383838383838 9.92143658810325  1.24242424242424 9.76430976430976  L 0.212121212121212 8.61952861952862  C 0.0707070707070708 8.46240179573513  0 8.27160493827161  0 8.04713804713805  C 0 7.82267115600449  0.0707070707070708 7.63187429854096  0.212121212121212 7.47474747474747  L 2.43939393939394 5  L 0.212121212121212 2.52525252525253  C 0.0707070707070708 2.36812570145903  0 2.17732884399551  0 1.95286195286195  C 0 1.72839506172839  0.0707070707070708 1.53759820426487  0.212121212121212 1.38047138047138  L 1.24242424242424 0.235690235690236  C 1.38383838383838 0.0785634118967449  1.55555555555556 0  1.75757575757576 0  C 1.95959595959596 0  2.13131313131313 0.0785634118967449  2.27272727272727 0.235690235690236  L 4.5 2.71043771043771  L 6.72727272727273 0.235690235690236  C 6.86868686868687 0.0785634118967449  7.04040404040404 0  7.24242424242424 0  C 7.44444444444444 0  7.61616161616162 0.0785634118967449  7.75757575757576 0.235690235690236  L 8.78787878787879 1.38047138047138  C 8.92929292929293 1.53759820426487  9 1.72839506172839  9 1.95286195286195  C 9 2.17732884399551  8.92929292929293 2.36812570145903  8.78787878787879 2.52525252525253  L 6.56060606060606 5  L 8.78787878787879 7.47474747474747  Z " fill-rule="nonzero" fill="#000000" stroke="none" transform="matrix(1 0 0 1 1528 1888 )" />
  </g>
</svg>