<?xml version="1.0" encoding="utf-8"?>
<svg version="1.1" xmlns:xlink="http://www.w3.org/1999/xlink" width="4px" height="8px" xmlns="http://www.w3.org/2000/svg">
  <g transform="matrix(1 0 0 1 -259 -2592 )">
    <path d="M 4 1.14143920595533  C 4 1.22746071133168  3.97554697554698 1.30190239867659  3.92664092664093 1.36476426799007  L 1.87644787644788 4  L 3.92664092664093 6.63523573200993  C 3.97554697554698 6.69809760132341  4 6.77253928866832  4 6.85856079404467  C 4 6.94458229942101  3.97554697554698 7.01902398676592  3.92664092664093 7.0818858560794  L 3.28571428571429 7.90570719602978  C 3.23680823680824 7.96856906534326  3.17889317889318 8  3.11196911196911 8  C 3.04504504504505 8  2.98712998712999 7.96856906534326  2.93822393822394 7.90570719602978  L 0.0733590733590734 4.22332506203474  C 0.0244530244530245 4.16046319272126  0 4.08602150537634  0 4  C 0 3.91397849462366  0.0244530244530245 3.83953680727874  0.0733590733590734 3.77667493796526  L 2.93822393822394 0.0942928039702231  C 2.98712998712999 0.0314309346567407  3.04504504504505 0  3.11196911196911 0  C 3.17889317889318 0  3.23680823680824 0.0314309346567407  3.28571428571429 0.0942928039702231  L 3.92664092664093 0.918114143920596  C 3.97554697554698 0.980976013234077  4 1.05541770057899  4 1.14143920595533  Z " fill-rule="nonzero" fill="#aaaaaa" stroke="none" transform="matrix(1 0 0 1 259 2592 )" />
  </g>
</svg>