<?xml version="1.0" encoding="utf-8"?>
<svg version="1.1" xmlns:xlink="http://www.w3.org/1999/xlink" width="4px" height="8px" xmlns="http://www.w3.org/2000/svg">
  <g transform="matrix(1 0 0 1 -303 -2592 )">
    <path d="M 4 4  C 4 4.08602150537634  3.97554697554698 4.16046319272126  3.92664092664093 4.22332506203474  L 1.06177606177606 7.90570719602978  C 1.01287001287001 7.96856906534326  0.954954954954955 8  0.888030888030888 8  C 0.821106821106821 8  0.763191763191763 7.96856906534326  0.714285714285714 7.90570719602978  L 0.0733590733590734 7.0818858560794  C 0.0244530244530245 7.01902398676592  0 6.94458229942101  0 6.85856079404467  C 0 6.77253928866832  0.0244530244530245 6.69809760132341  0.0733590733590734 6.63523573200993  L 2.12355212355212 4  L 0.0733590733590734 1.36476426799007  C 0.0244530244530245 1.30190239867659  0 1.22746071133168  0 1.14143920595533  C 0 1.05541770057899  0.0244530244530245 0.980976013234077  0.0733590733590734 0.918114143920596  L 0.714285714285714 0.0942928039702231  C 0.763191763191763 0.0314309346567407  0.821106821106821 0  0.888030888030888 0  C 0.954954954954955 0  1.01287001287001 0.0314309346567407  1.06177606177606 0.0942928039702231  L 3.92664092664093 3.77667493796526  C 3.97554697554698 3.83953680727874  4 3.91397849462366  4 4  Z " fill-rule="nonzero" fill="#aaaaaa" stroke="none" transform="matrix(1 0 0 1 303 2592 )" />
  </g>
</svg>